<svg width="48" height="48" fill="none" xmlns="http://www.w3.org/2000/svg"><g clip-path="url(#a)"><path d="M35.09 13.226a26.23 26.23 0 0 0-6.514-2.037.098.098 0 0 0-.105.05 18.594 18.594 0 0 0-.81 1.68 24.156 24.156 0 0 0-7.317 0 17.055 17.055 0 0 0-.823-1.68.102.102 0 0 0-.105-.05 26.152 26.152 0 0 0-6.513 2.037.094.094 0 0 0-.043.037c-4.149 6.251-5.285 12.348-4.728 18.37.003.029.02.057.042.075a26.448 26.448 0 0 0 7.99 4.074.103.103 0 0 0 .113-.037 19.15 19.15 0 0 0 1.634-2.682.102.102 0 0 0-.055-.142 17.407 17.407 0 0 1-2.496-1.2.104.104 0 0 1-.01-.172c.167-.127.335-.258.495-.392a.098.098 0 0 1 .104-.014c5.237 2.412 10.906 2.412 16.082 0a.098.098 0 0 1 .104.013c.16.133.328.267.497.393a.104.104 0 0 1-.008.172c-.798.47-1.626.867-2.498 1.199a.103.103 0 0 0-.054.143c.48.939 1.029 1.832 1.633 2.68.025.036.07.051.113.039a26.36 26.36 0 0 0 8.003-4.074.104.104 0 0 0 .041-.074c.667-6.962-1.117-13.009-4.731-18.37a.082.082 0 0 0-.042-.038Zm-16.397 14.74c-1.576 0-2.876-1.46-2.876-3.253 0-1.792 1.274-3.252 2.876-3.252 1.615 0 2.901 1.472 2.876 3.252 0 1.793-1.274 3.253-2.876 3.253Zm10.633 0c-1.576 0-2.875-1.46-2.875-3.253 0-1.792 1.273-3.252 2.875-3.252 1.615 0 2.901 1.472 2.876 3.252 0 1.793-1.261 3.253-2.876 3.253Z" fill="#fff"/></g><defs><clipPath id="a"><path fill="#fff" transform="translate(8 11)" d="M0 0h32v25H0z"/></clipPath></defs></svg>