<svg width="48" height="48" fill="none" xmlns="http://www.w3.org/2000/svg"><g clip-path="url(#a)"><path fill-rule="evenodd" clip-rule="evenodd" d="M24 9a16.063 16.063 0 0 0-10.379 3.784 15.87 15.87 0 0 0-5.43 9.566 15.809 15.809 0 0 0 2.108 10.781 15.982 15.982 0 0 0 8.643 6.85c.795.146 1.09-.352 1.09-.771v-2.703c-4.45.976-5.392-2.127-5.392-2.127a4.258 4.258 0 0 0-1.778-2.333c-1.444-.975.118-.975.118-.975a3.38 3.38 0 0 1 2.445 1.639 3.4 3.4 0 0 0 2.05 1.624 3.441 3.441 0 0 0 2.606-.297c.062-.803.41-1.557.982-2.127-3.555-.4-7.288-1.766-7.288-7.855a6.125 6.125 0 0 1 1.64-4.264 5.751 5.751 0 0 1 .158-4.206s1.345-.429 4.4 1.63a15.231 15.231 0 0 1 8.015 0c3.054-2.059 4.39-1.63 4.39-1.63a5.722 5.722 0 0 1 .167 4.206 6.125 6.125 0 0 1 1.64 4.264c0 6.108-3.742 7.445-7.307 7.806a3.755 3.755 0 0 1 1.09 2.927v4.362c0 .517.285.917 1.1.77a15.99 15.99 0 0 0 8.608-6.861 15.818 15.818 0 0 0 2.092-10.765 15.88 15.88 0 0 0-5.416-9.553A16.073 16.073 0 0 0 24 8.942V9Z" fill="#fff"/></g><defs><clipPath id="a"><path fill="#fff" transform="translate(8 9)" d="M0 0h32v31H0z"/></clipPath></defs></svg>