<?xml version="1.0" encoding="UTF-8"?>
<svg width="453px" height="275px" viewBox="0 0 453 275" version="1.1" xmlns="http://www.w3.org/2000/svg" xmlns:xlink="http://www.w3.org/1999/xlink">
    <title>编组 8</title>
    <defs>
        <linearGradient x1="43.7649872%" y1="5.30045568%" x2="62.0789232%" y2="98.3943916%" id="linearGradient-1">
            <stop stop-color="#00D8E8" offset="0%"></stop>
            <stop stop-color="#005DFD" offset="100%"></stop>
        </linearGradient>
        <linearGradient x1="50%" y1="28.8387819%" x2="50%" y2="99.7186407%" id="linearGradient-2">
            <stop stop-color="#00A0F2" offset="0%"></stop>
            <stop stop-color="#00F8DE" offset="100%"></stop>
        </linearGradient>
        <linearGradient x1="77.5686436%" y1="25.7306488%" x2="77.5686436%" y2="99.8072665%" id="linearGradient-3">
            <stop stop-color="#EEEEEE" stop-opacity="0" offset="0%"></stop>
            <stop stop-color="#00DBB4" offset="100%"></stop>
        </linearGradient>
        <linearGradient x1="52.1033821%" y1="45.8378357%" x2="57.7325219%" y2="58.4803211%" id="linearGradient-4">
            <stop stop-color="#EEEEEE" stop-opacity="0" offset="0%"></stop>
            <stop stop-color="#00E7F4" offset="100%"></stop>
        </linearGradient>
    </defs>
    <g id="页面-1" stroke="none" stroke-width="1" fill="none" fill-rule="evenodd">
        <g id="Heighliner" transform="translate(-311.000000, -364.000000)">
            <g id="编组-8" transform="translate(311.002021, 364.000000)">
                <path d="M354.413502,141.687758 C353.573056,142.898892 352.917236,145.124412 352.428976,147.62818 C348.696886,190.862526 322.758128,227.758312 286.055339,246.893915 C285.551707,247.206296 285.157339,247.545865 284.445139,248.157625 C279.109217,252.741032 276.764561,261.68849 277.411171,275 L272.48468,252.96279 C272.476325,252.965939 272.46797,252.969086 272.459614,252.972233 L263.014404,208.615598 C285.854174,198.108955 302.884741,177.16727 307.974689,151.911637 C325.159562,147.553248 341.302284,143.306305 356.101114,139.258588 C355.543182,140.060089 354.980892,140.870116 354.413502,141.687758 Z M228.843383,215.899965 L238.350679,260.543249 C235.131537,260.792751 231.877996,260.919831 228.594725,260.919831 C185.377844,260.919831 147.312126,238.902217 125.038726,205.490225 C124.154244,204.63064 123.105763,203.332806 121.880727,201.552165 C120.656061,199.772064 117.729293,197.173086 115.041326,195.217435 C130.951578,192.14973 148.138197,188.668275 166.269809,184.830065 C180.752487,203.547923 203.375536,215.667352 228.843383,215.899965 Z M177.074611,0 L181.924564,22.7825861 L181.893875,22.798 L191.110902,66.0933343 C166.387416,79.6693977 149.633284,105.921997 149.633284,136.081145 C149.633284,144.966817 151.087618,153.513383 153.771618,161.496551 C125.79233,168.537361 100.420247,175.317422 78.9096559,181.468492 C66.1746934,176.782988 57.5285534,172.897751 56.8553964,169.730796 C55.6964609,164.278433 100.374716,158.818416 104.42977,130.37682 L104.471413,130.102539 C106.825141,86.0954401 132.145351,48.1753998 168.682458,28.0722204 C169.036004,27.7272695 169.48856,27.3165983 170.040643,26.8423745 C175.376565,22.2589681 177.721221,13.3115099 177.074611,0 Z M228.594725,12.7330705 C276.725311,12.7330705 318.466782,40.042067 339.119996,79.9856686 C353.808164,104.637567 382.252402,87.644393 383.416112,93.1192158 C384.067884,96.1855616 380.23907,103.343218 373.585428,113.601373 C354.580381,116.941063 332.74346,121.128749 308.918223,126.021367 C303.963481,86.6857725 270.33609,56.2589169 229.590141,56.2589169 C227.971205,56.2589169 226.363507,56.3069508 224.768398,56.4016688 L215.613306,13.4016479 C219.880037,12.9596257 224.210879,12.7330705 228.594725,12.7330705 Z" id="形状结合" fill="url(#linearGradient-1)"></path>
                <path d="M226.505378,164.30163 C352.292014,164.347889 454.254294,154.774586 454.254294,142.918892 C454.254294,134.871552 407.267531,127.841108 337.745186,124.140242 C334.210294,123.95207 321.689128,135.512269 318.47423,135.723532 C294.358572,137.308266 270.112955,136.833599 227.855467,136.952581 C185.597979,137.071564 170.180293,134.167474 141.642866,133.609632 C136.86841,133.516303 128.2073,123.42383 124.415752,123.601897 C49.8838627,127.102212 -1.25940742,134.354056 -1.25940742,142.750766 C-1.25940742,154.60646 100.718743,164.255035 226.505378,164.30163 Z" id="椭圆形" fill="url(#linearGradient-2)" transform="translate(226.497443, 143.950599) rotate(-13.000000) translate(-226.497443, -143.950599) "></path>
                <path d="M119.692828,195.435341 C143.511332,209.080696 179.831495,215.903374 228.653314,215.903374 C229.590141,215.903374 213.973069,214.522926 211.776745,213.920974 C202.049774,211.25508 199.116394,210.033061 193.549157,207.394144 C178.665518,200.339175 166.183716,185.253514 166.183716,185.253514 C162.965395,188.332818 147.468432,191.72676 119.692828,195.435341 Z" id="路径" fill="url(#linearGradient-3)"></path>
                <path d="M225.044151,48.0052293 C261.975911,88.0152734 302.006976,99.0994363 345.137345,81.2577179 C345.695286,81.0269151 329.982822,80.8783246 327.53576,80.3469945 C316.053389,77.8538298 305.793278,74.8662827 293.553663,65.946802 C283.143579,58.3605711 279.973164,52.0957785 279.973164,52.0957785 C276.754843,55.1750823 258.445172,53.8115659 225.044151,48.0052293 Z" id="路径" fill="url(#linearGradient-4)" transform="translate(285.097999, 68.758317) scale(-1, -1) translate(-285.097999, -68.758317) "></path>
            </g>
        </g>
    </g>
</svg>