<svg width="1441" height="154" viewBox="0 0 1441 154" fill="none" xmlns="http://www.w3.org/2000/svg">
    <path fill-rule="evenodd" clip-rule="evenodd" d="M1229.21 1.355 1441 1.76v78.067c-3.5-2.398-7-4.806-10.49-7.213l-.02-.017-.01-.002v-.005c-4.22-2.907-8.43-5.813-12.67-8.701-14.67-10.025-29.62-19.775-45.39-28.517-.66-.36-1.31-.728-1.97-1.097-1.3-.739-2.61-1.477-3.97-2.14l-6.1-2.998c-2.88-1.52-5.93-2.765-8.99-4.01-1.19-.485-2.38-.97-3.56-1.47l-3.18-1.308-3.26-1.127-6.55-2.266c-1.76-.657-3.58-1.177-5.41-1.699l-1.23-.352-6.69-1.93c-17.96-4.87-36.53-8.047-55.25-10.098-18.74-2.038-37.62-2.95-56.5-2.998-18.89-.036-37.78.744-56.55 2.447-2.59.298-5.17.569-7.76.84-6.78.712-13.56 1.424-20.26 2.613l-6.95 1.08c-.59.095-1.19.185-1.78.275-1.73.264-3.46.528-5.17.912l-13.77 2.782c-3.19.58-6.32 1.36-9.44 2.138-1.4.349-2.8.697-4.2 1.028l-6.8 1.666-3.39.84-3.35.96-13.42 3.837c-1.74.473-3.44 1.025-5.15 1.579-.5.162-.99.323-1.49.483l-6.62 2.135c-6.14 1.892-12.15 4.044-18.17 6.195a978.06 978.06 0 0 1-8.03 2.847l-12.9 4.928-6.446 2.483-6.387 2.59c-22.355 9.005-44.318 18.685-66.287 28.369l-.004.002h-.002c-11.526 5.08-23.054 10.162-34.64 15.147-2.742 1.188-5.501 2.345-8.258 3.502l-.005.002-.009.004h-.003c-1.467.617-2.935 1.232-4.399 1.852-1.027.43-2.052.863-3.077 1.295-3.201 1.351-6.4 2.7-9.639 3.981l-12.788 5.169c-2.832 1.116-5.695 2.169-8.556 3.222a702.678 702.678 0 0 0-4.417 1.635c-1.536.558-3.062 1.131-4.588 1.703-2.795 1.048-5.588 2.095-8.428 3.057l-13.23 4.329c-6.414 2.224-12.99 4.08-19.568 5.937h-.001l-.006.002a921.27 921.27 0 0 0-7.184 2.048c-.761.211-1.518.431-2.275.652-1.48.431-2.958.861-4.468 1.218l-6.814 1.679-13.629 3.358c-1.828.487-3.694.871-5.559 1.254l-.613.127-.685.142-6.886 1.439c-1.632.337-3.265.68-4.898 1.023-2.959.622-5.92 1.244-8.888 1.831l-13.899 2.41-6.957 1.211c-.422.071-.844.145-1.267.221h-.003c-.733.13-1.468.261-2.209.367l-3.507.492-13.999 1.954-7 .972-7.043.755c-75.03 8.43-151.67 6.368-225.931-5.852l-111.596-17.16-27.9-4.281-13.956-2.051c-3.044-.479-6.107-.85-9.168-1.221-1.612-.195-3.224-.39-4.832-.601-6.8-.917-13.63-1.612-20.458-2.306-2.548-.259-5.095-.518-7.641-.788-2.422-.198-4.843-.403-7.263-.609h-.003c-6.979-.593-13.954-1.185-20.961-1.586-75.4-4.94-151.343-1.834-226.33 6.176V-1l1188.05 2.276c7.22-.226 14.45-.326 21.68-.308 6.49.025 12.99.15 19.48.387z" fill="#000"/>
</svg>
