<svg width="100%" preserveAspectRatio="none" height="93" viewBox="0 0 1639 92" fill="none" xmlns="http://www.w3.org/2000/svg">
<path fill-rule="evenodd" clip-rule="evenodd" d="M1630.38 42.8676C1633.25 43.9199 1636.12 44.9725 1639 46.0229V92.1901H676.66C708.042 92.005 739.4 90.9876 770.515 89.1281L778.541 88.6701L786.519 88.0812L802.475 86.8963L806.472 86.5982C807.318 86.5336 808.157 86.4543 808.994 86.3753L808.996 86.3751L809.336 86.3431C809.703 86.3085 810.07 86.2744 810.437 86.242L818.366 85.5077L834.208 84.0465C837.591 83.6905 840.966 83.3132 844.339 82.9363L844.346 82.9355C846.205 82.7278 848.063 82.5202 849.92 82.3163L857.768 81.4439L858.148 81.4019L858.802 81.33L859.247 81.2812C861.373 81.0485 863.5 80.8157 865.584 80.5207L881.117 78.4851L888.884 77.4674C890.604 77.2509 892.289 76.9898 893.976 76.7284C894.839 76.5948 895.701 76.4612 896.57 76.3333C899.296 75.9118 902.03 75.5012 904.764 75.0907C912.262 73.9648 919.757 72.8395 927.068 71.4916L942.146 68.8672C945.383 68.2841 948.566 67.6493 951.752 67.0139C953.491 66.667 955.231 66.32 956.981 65.9811C958.654 65.6476 960.333 65.3191 962.013 64.9904L962.016 64.9899L962.017 64.9895L962.019 64.9891L962.021 64.9888L962.023 64.9884L962.03 64.9871C965.286 64.3499 968.544 63.7124 971.767 63.0369L986.342 59.9036C990.035 59.1271 993.681 58.3088 997.33 57.49L997.35 57.4854L997.355 57.4843C998.514 57.2241 999.674 56.9639 1000.84 56.7049C1002.5 56.3293 1004.18 55.9562 1005.85 55.5831L1005.85 55.5826L1005.85 55.582L1005.85 55.5815L1005.86 55.5797C1009.01 54.8781 1012.15 54.176 1015.28 53.4553C1028.49 50.433 1041.63 47.3522 1054.77 44.2718C1079.81 38.4014 1104.84 32.5326 1130.32 27.0733L1137.6 25.5031L1144.94 23.9982L1159.65 21.0104C1162.71 20.4444 1165.75 19.8646 1168.8 19.2849L1168.8 19.2845C1175.66 17.9804 1182.52 16.6763 1189.51 15.5289L1197.05 14.2349C1197.62 14.138 1198.19 14.04 1198.75 13.942C1200.7 13.6064 1202.64 13.2715 1204.62 12.9845L1219.91 10.6582L1223.73 10.0766L1227.6 9.56773L1235.35 8.55723C1236.95 8.35725 1238.54 8.14615 1240.13 7.93489L1240.13 7.93465L1240.14 7.93389C1243.7 7.46199 1247.26 6.98936 1250.9 6.63801L1266.59 4.95143C1268.54 4.71869 1270.52 4.55848 1272.48 4.3988L1272.49 4.39864C1273.16 4.34391 1273.84 4.28923 1274.51 4.23172L1282.44 3.57745C1290.07 2.85642 1297.8 2.42496 1305.53 1.99345L1305.53 1.9934C1308.47 1.82888 1311.42 1.66434 1314.36 1.48375C1335.76 0.451441 1357.29 -0.0210884 1378.82 0.00072094C1400.33 0.0297999 1421.86 0.582302 1443.21 1.81816C1464.55 3.06129 1485.72 4.98778 1506.19 7.93931L1513.81 9.10974C1514.28 9.18155 1514.75 9.25239 1515.21 9.32319C1517.3 9.63943 1519.38 9.95489 1521.38 10.3529L1528.84 11.7269L1532.56 12.4102L1536.19 13.2026C1537.53 13.5061 1538.89 13.7999 1540.24 14.0938C1543.73 14.8487 1547.21 15.6039 1550.49 16.5249L1557.44 18.3423C1558.99 18.7444 1560.48 19.1916 1561.97 19.6388L1561.97 19.6396C1562.72 19.8633 1563.46 20.0871 1564.22 20.3052C1582.19 25.6049 1599.23 31.5152 1615.95 37.5927C1620.77 39.3436 1625.58 41.1054 1630.38 42.8676ZM513.01 85.5804C559.999 89.6931 607.824 91.9079 655.707 92.1901H0V70.7719C85.4665 65.9157 172.022 64.0328 257.959 67.028C265.945 67.2709 273.895 67.6299 281.849 67.9892L281.85 67.9892L281.852 67.9893L281.853 67.9894L281.854 67.9895L281.856 67.9895L281.857 67.9896L281.858 67.9897C284.615 68.1142 287.372 68.2387 290.131 68.3584C293.032 68.5223 295.936 68.6793 298.84 68.8364L298.84 68.8364L298.841 68.8364L298.842 68.8365L298.842 68.8365L298.843 68.8366L298.844 68.8366L298.844 68.8367C306.624 69.2573 314.408 69.6782 322.157 70.234C323.99 70.3619 325.827 70.4803 327.664 70.5987L327.664 70.5987L327.665 70.5987L327.665 70.5987L327.665 70.5988L327.665 70.5988L327.666 70.5988L327.666 70.5988C331.154 70.8236 334.644 71.0485 338.113 71.339L354.02 72.5821L385.818 75.1774L513.01 85.5804Z" fill="#F3F3F3"/>
</svg>
