<svg width="112" height="43" viewBox="0 0 112 43" fill="none" xmlns="http://www.w3.org/2000/svg">
    <path d="M1.1 4.8h20.88L-.1 42h29.4v-4.8H8.42L30.5 0H1.1v4.8zm43.959 37.8c2.96 0 5.52-.58 7.68-1.74 2.2-1.2 4.02-2.96 5.46-5.28l-3.9-2.46c-1 1.68-2.22 2.94-3.66 3.78-1.44.8-3.1 1.2-4.98 1.2-1.88 0-3.48-.4-4.8-1.2-1.32-.8-2.32-1.96-3-3.48-.68-1.52-1.02-3.36-1.02-5.52.04-2.12.4-3.9 1.08-5.34.72-1.48 1.72-2.6 3-3.36 1.32-.8 2.9-1.2 4.74-1.2 1.56 0 2.92.34 4.08 1.02 1.16.68 2.06 1.62 2.7 2.82.68 1.2 1.02 2.62 1.02 4.26 0 .28-.06.64-.18 1.08-.12.4-.24.7-.36.9l1.92-2.76h-19.8v4.08h23.58v-.54c.04-.32.06-.62.06-.9 0-2.92-.52-5.44-1.56-7.56-1.04-2.12-2.54-3.74-4.5-4.86-1.92-1.16-4.24-1.74-6.96-1.74-2.72 0-5.12.6-7.2 1.8-2.04 1.2-3.64 2.88-4.8 5.04-1.12 2.16-1.68 4.68-1.68 7.56 0 2.84.54 5.34 1.62 7.5 1.12 2.16 2.66 3.86 4.62 5.1 2 1.2 4.28 1.8 6.84 1.8zm24.999-28.2h-4.8V42h4.8V14.4zm8.34 5.28 2.64-3.96c-.72-.76-1.52-1.26-2.4-1.5-.84-.28-1.76-.42-2.76-.42-1.28 0-2.54.5-3.78 1.5-1.24 1-2.26 2.36-3.06 4.08-.76 1.68-1.14 3.62-1.14 5.82h2.16c0-1.32.12-2.5.36-3.54.28-1.04.76-1.86 1.44-2.46.68-.6 1.62-.9 2.82-.9.8 0 1.46.12 1.98.36.52.2 1.1.54 1.74 1.02zm4.147 8.52c0 2.76.62 5.24 1.86 7.44 1.28 2.16 3 3.86 5.16 5.1 2.16 1.24 4.58 1.86 7.26 1.86 2.72 0 5.14-.62 7.26-1.86 2.16-1.24 3.86-2.94 5.1-5.1 1.28-2.2 1.92-4.68 1.92-7.44 0-2.8-.64-5.28-1.92-7.44a13.571 13.571 0 0 0-5.1-5.1c-2.12-1.24-4.54-1.86-7.26-1.86-2.68 0-5.1.62-7.26 1.86a14.022 14.022 0 0 0-5.16 5.1c-1.24 2.16-1.86 4.64-1.86 7.44zm4.86 0c0-1.92.4-3.62 1.2-5.1.84-1.52 1.96-2.7 3.36-3.54 1.44-.84 3.06-1.26 4.86-1.26 1.8 0 3.4.42 4.8 1.26 1.44.84 2.56 2.02 3.36 3.54.84 1.48 1.26 3.18 1.26 5.1 0 1.92-.42 3.62-1.26 5.1a9.216 9.216 0 0 1-3.36 3.54c-1.4.84-3 1.26-4.8 1.26-1.8 0-3.42-.42-4.86-1.26-1.4-.88-2.52-2.06-3.36-3.54-.8-1.48-1.2-3.18-1.2-5.1z" fill="url(#ce9ch4jida)"/>
    <defs>
        <linearGradient id="ce9ch4jida" x1="-35" y1="19" x2="133.5" y2="22" gradientUnits="userSpaceOnUse">
            <stop offset=".157" stop-color="#DC19A5"/>
            <stop offset=".378" stop-color="#B6BCF2"/>
            <stop offset=".552" stop-color="#B5BCF2"/>
            <stop offset=".704" stop-color="#B6BDF3"/>
            <stop offset=".854" stop-color="#A06DED"/>
        </linearGradient>
    </defs>
</svg>
