<svg width="60" height="37" viewBox="0 0 60 37" fill="none" xmlns="http://www.w3.org/2000/svg">
<path fill-rule="evenodd" clip-rule="evenodd" d="M46.7812 18.9367C46.6449 19.1829 46.5543 19.4518 46.514 19.7303C46.2702 22.5081 45.3299 25.1795 43.78 27.4974C42.2301 29.8154 40.1207 31.7051 37.6468 32.9917C37.5709 33.0426 37.499 33.0994 37.4317 33.1614C36.7192 33.7733 36.4075 34.9685 36.4965 36.7472L35.8392 33.808L34.578 27.8814C36.105 27.1802 37.4452 26.1289 38.4898 24.8127C39.5344 23.4965 40.254 21.9525 40.5901 20.3062C42.8854 19.7237 45.0417 19.1559 47.019 18.6161L46.7812 18.9367ZM30.0048 28.8447L31.2754 34.8087C30.8452 34.8425 30.4109 34.8594 29.9727 34.8594C27.2346 34.862 24.5384 34.1871 22.1244 32.895C19.7103 31.6029 17.6534 29.7337 16.1369 27.4539C15.9804 27.2917 15.8391 27.1155 15.7147 26.9275C15.4514 26.6036 15.1437 26.3185 14.8009 26.0804C16.9265 25.6716 19.2231 25.2067 21.6453 24.6937C22.6333 25.9735 23.8991 27.0122 25.3473 27.7313C26.7954 28.4504 28.388 28.8311 30.0048 28.8447V28.8447ZM23.0896 0L23.7375 3.03811L24.968 8.82174C22.7737 10.0238 21.0718 11.959 20.1598 14.2889C19.2479 16.6188 19.184 19.1951 19.9793 21.5674C16.2384 22.5026 12.8516 23.4138 9.97785 24.2394C8.2771 23.6128 7.12144 23.0944 7.03861 22.6709C6.88363 21.9428 12.853 21.2133 13.3941 17.4123V17.3763C13.5482 14.563 14.4167 11.8355 15.9177 9.4511C17.4187 7.06673 19.5026 5.10423 21.9726 3.74887C22.0207 3.70211 22.0809 3.64733 22.1543 3.58454C22.8642 2.97353 23.176 1.77869 23.0896 0V0ZM29.9727 1.70209C33.0215 1.70014 36.012 2.53745 38.6165 4.12225C41.221 5.70706 43.339 7.9782 44.7384 10.6868C46.701 13.9814 50.5007 11.7102 50.657 12.4424C50.7438 12.8512 50.2321 13.8078 49.3437 15.1785C46.8053 15.6248 43.886 16.1845 40.7036 16.8379C40.3734 14.2608 39.1148 11.8927 37.1638 10.177C35.2127 8.46133 32.7031 7.51588 30.105 7.51778C29.8886 7.51778 29.6748 7.51778 29.461 7.53649L28.2372 1.7916C28.8138 1.73206 29.3931 1.70218 29.9727 1.70209V1.70209Z" fill="#61A4BC"/>
<path fill-rule="evenodd" clip-rule="evenodd" d="M30.3041 21.876C46.6824 18.1071 59.6658 13.7957 59.3104 12.2566C59.0686 11.2092 52.7399 11.7062 43.5788 13.3134C43.1125 13.3949 41.8299 15.276 41.4184 15.4003C38.3269 16.3355 35.1565 17.0035 29.6615 18.2834C24.1664 19.5633 22.0689 19.6542 18.3374 20.4397C17.7134 20.5733 16.2826 19.5179 15.7989 19.6542C6.20095 22.3462 -0.245345 24.8272 0.00716253 25.9201C0.36388 27.4645 13.9285 25.6556 30.3041 21.876Z" fill="#61A4BC"/>
</svg>
