<svg width="89" height="96" viewBox="0 0 89 96" fill="none" xmlns="http://www.w3.org/2000/svg">
<circle r="7.05742" transform="matrix(-0.690841 -0.723006 0.722996 -0.690852 13.5272 54.9891)" fill="#3357D8"/>
<path d="M12.6774 33.1845L33.1143 35.8647L33.5223 13.2665L9.34433 10.9883L12.6774 33.1845Z" fill="#EE6042"/>
<circle cx="54.3472" cy="37.8669" r="6.97121" transform="rotate(-133.697 54.3472 37.8669)" fill="#1CBCFF"/>
<path opacity="0.5" d="M39.885 94.9029L5.44535 74.9643C4.70383 74.5524 4.78622 73.8109 5.69253 73.3165L15.8267 67.4668L52.9852 88.8884L42.8511 94.7381C41.9448 95.3148 40.6265 95.3148 39.885 94.9029Z" fill="#242993"/>
<path d="M88.9076 67.7964V60.9579H77.7023L52.9025 46.6218C52.3258 46.2922 51.2547 46.2922 50.5132 46.7042L25.7957 60.9579H14.6729V67.8788C14.6729 68.1259 14.8376 68.2907 15.0848 68.4555L50.6779 88.971C51.2547 89.3006 52.3258 89.3006 53.0673 88.8886L88.3308 68.5379C88.6604 68.3731 88.9076 68.0436 88.9076 67.7964Z" fill="url(#paint0_linear_160_9449)"/>
<path d="M50.6775 82.1324L15.0844 61.6169C14.5077 61.2873 14.5901 60.6282 15.2492 60.2162L50.5128 39.8655C51.2543 39.4536 52.243 39.4536 52.9021 39.7831L88.4952 60.2986C89.072 60.6282 88.9896 61.2873 88.3304 61.6993L53.0669 82.05C52.4078 82.4619 51.3367 82.4619 50.6775 82.1324Z" fill="url(#paint1_linear_160_9449)"/>
<path d="M50.842 79.7428L19.2861 61.5345C18.7093 61.2049 18.7917 60.7106 19.4509 60.2986L50.6772 42.2551C51.3364 41.9255 52.2427 41.8431 52.8194 42.1727L84.3754 60.381C84.9521 60.7106 84.8697 61.2049 84.2106 61.6169L52.9018 79.6604C52.3251 79.99 51.3364 80.0724 50.842 79.7428Z" fill="#242993"/>
<path d="M50.9251 78.1774L21.9232 61.4521C21.4289 61.205 21.5113 60.6282 22.088 60.2987L50.7603 43.8206C51.337 43.491 52.1609 43.491 52.6553 43.7382L81.6571 60.4635C82.1514 60.7106 82.069 61.2874 81.4923 61.6169L52.8201 78.095C52.2433 78.4246 51.4194 78.507 50.9251 78.1774Z" fill="#4553C7"/>
<g clip-path="url(#clip0_160_9449)">
<path fill-rule="evenodd" clip-rule="evenodd" d="M59.535 62.4285C59.4223 62.4758 59.2742 62.5766 59.1243 62.6939C56.8476 64.7929 53.3917 66.2285 50.0532 66.6095C50.0051 66.6172 49.9629 66.628 49.8869 66.6474C49.317 66.7927 48.7413 67.2025 48.1597 67.8768L48.8661 66.7001C48.8654 66.7002 48.8647 66.7002 48.864 66.7002L50.317 64.3391C52.3288 64.172 54.4438 63.3932 55.9672 62.2126C57.3145 62.2638 58.5872 62.3042 59.7612 62.3336C59.6865 62.3649 59.6111 62.3965 59.535 62.4285ZM47.703 64.1684L46.2406 66.5447C46.0148 66.5068 45.7925 66.4623 45.5742 66.411C42.7004 65.7353 41.2022 64.0415 41.2887 62.0259C41.2702 61.9692 41.2614 61.8881 41.2635 61.7801C41.2656 61.6721 41.1929 61.4966 41.1059 61.357C42.3078 61.4527 43.614 61.5477 44.9998 61.6396C45.0846 62.8001 46.0204 63.7586 47.703 64.1684ZM54.3902 52.5855L53.6438 53.7982L53.641 53.7985L52.2226 56.1031C49.9416 56.394 47.5958 57.442 46.1807 58.947C45.7638 59.3904 45.4596 59.8396 45.2635 60.2799C43.0726 60.1938 41.0673 60.1354 39.3483 60.106C38.7213 59.6731 38.3287 59.3441 38.4325 59.1755C38.6112 58.8853 41.8384 59.3114 43.4425 57.9556L43.4581 57.9425C45.6794 55.7834 49.1422 54.287 52.5151 53.8551C52.5548 53.8434 52.6041 53.83 52.6631 53.815C53.233 53.6697 53.8087 53.2599 54.3902 52.5855ZM57.2187 54.0264C60.4193 54.779 61.9137 56.7943 61.413 59.1104C61.233 60.5702 63.9218 60.1669 63.7423 60.4583C63.6418 60.6215 63.0514 60.9188 62.1276 61.3267C60.7071 61.1962 59.0586 61.0638 57.2447 60.9354C58.7608 58.8951 57.9523 56.851 55.2428 56.2139C55.1351 56.1886 55.026 56.1659 54.9154 56.1457L56.3242 53.8568C56.6286 53.9015 56.9272 53.9579 57.2187 54.0264Z" fill="white"/>
<path fill-rule="evenodd" clip-rule="evenodd" d="M50.2972 61.6024C59.7735 62.1091 67.7505 62.0187 68.1152 61.4006C68.3627 60.981 65.0386 60.4261 59.9141 59.9544C59.6535 59.9304 58.3546 60.483 58.1058 60.4811C56.24 60.467 54.4278 60.3451 51.2401 60.1819C48.0525 60.0187 46.9802 59.8054 44.8471 59.662C44.4902 59.6379 44.1481 59.077 43.8569 59.0711C38.1335 58.9548 34.0569 59.1279 33.7986 59.5657C33.434 60.1838 40.821 61.0957 50.2972 61.6024Z" fill="white"/>
</g>
<defs>
<linearGradient id="paint0_linear_160_9449" x1="73.0422" y1="47.5259" x2="15.2217" y2="93.8915" gradientUnits="userSpaceOnUse">
<stop stop-color="#BCD5FF"/>
<stop offset="0.151" stop-color="#A3BEFF"/>
<stop offset="0.3866" stop-color="#82A0FF"/>
<stop offset="0.6124" stop-color="#6A8AFF"/>
<stop offset="0.8221" stop-color="#5C7DFF"/>
<stop offset="1" stop-color="#5778FF"/>
</linearGradient>
<linearGradient id="paint1_linear_160_9449" x1="83.9694" y1="61.6705" x2="3.54326" y2="36.5511" gradientUnits="userSpaceOnUse">
<stop stop-color="#C0D6FF"/>
<stop offset="0.2978" stop-color="#C5DBFF"/>
<stop offset="0.6488" stop-color="#D3E9FF"/>
<stop offset="1" stop-color="#E9FFFF"/>
</linearGradient>
<clipPath id="clip0_160_9449">
<rect width="30.9446" height="18.8357" fill="white" transform="matrix(0.973454 0.228881 -0.685006 0.728538 42.6152 49.8169)"/>
</clipPath>
</defs>
</svg>
