<svg width="1438" height="150" viewBox="0 0 1438 150" fill="none" xmlns="http://www.w3.org/2000/svg">
<path fill-rule="evenodd" clip-rule="evenodd" d="M1430.44 69.3718C1432.96 71.0749 1435.48 72.778 1438 74.4782V149.191H593.585C621.149 148.894 648.692 147.247 676.022 144.235L683.064 143.493L690.064 142.54L704.063 140.623L707.57 140.14C708.298 140.038 709.021 139.911 709.741 139.785L709.762 139.782L709.782 139.78L710.412 139.67L711.048 139.564L718.005 138.376L731.904 136.011C734.872 135.435 737.833 134.824 740.792 134.215C742.425 133.878 744.058 133.541 745.689 133.211L752.575 131.799L753.873 131.536C755.738 131.159 757.604 130.782 759.432 130.305L773.061 127.011L779.875 125.364C781.384 125.014 782.862 124.592 784.343 124.168L785.104 123.95L786.021 123.693L786.618 123.529C788.99 122.853 791.368 122.194 793.746 121.535L793.797 121.521L793.802 121.52L793.806 121.519C800.387 119.696 806.962 117.875 813.376 115.694L826.605 111.447C829.445 110.503 832.238 109.476 835.033 108.447C836.559 107.886 838.085 107.324 839.621 106.776C841.09 106.236 842.564 105.704 844.039 105.172C846.899 104.139 849.762 103.106 852.594 102.011L865.381 96.9406C868.621 95.6843 871.82 94.3601 875.021 93.0349C876.045 92.6111 877.07 92.1867 878.097 91.7644C879.563 91.1555 881.033 90.5505 882.503 89.9455L882.508 89.9436L885.272 88.8044C887.109 88.0456 888.944 87.2824 890.771 86.5056C902.355 81.6159 913.881 76.632 925.41 71.6462L925.416 71.6438L925.445 71.6306C947.403 62.1355 969.356 52.6428 991.701 43.8122L998.088 41.2712L1004.53 38.8357L1017.43 34.0007C1018.58 33.6076 1019.73 33.2107 1020.88 32.8112C1021.8 32.4914 1022.72 32.1706 1023.64 31.8493L1025.46 31.2112L1025.46 31.2082L1025.6 31.1599C1028.31 30.2097 1031.02 29.2595 1033.74 28.3327C1037.02 27.2175 1040.31 26.1364 1043.63 25.1301L1050.25 23.0359L1051.09 22.7688L1051.73 22.5671L1051.74 22.5617C1053.45 22.0188 1055.15 21.4768 1056.89 21.0124L1070.31 17.2478L1073.66 16.3069L1077.05 15.4831L1083.85 13.8479C1085.24 13.5276 1086.62 13.1902 1088 12.8523L1088.05 12.8391C1089.86 12.3962 1091.68 11.9533 1093.5 11.5481C1094.82 11.2546 1096.15 10.9812 1097.49 10.7419L1111.26 8.01242C1112.97 7.63596 1114.71 7.37668 1116.43 7.11838L1117.04 7.02658C1117.43 6.96799 1117.82 6.9089 1118.21 6.84787L1125.16 5.78928C1131.86 4.62228 1138.64 3.92404 1145.42 3.2258C1148.01 2.95969 1150.59 2.69308 1153.18 2.40109C1171.95 0.730193 1190.84 -0.034455 1209.73 0.00118952C1228.6 0.0480645 1247.49 0.942107 1266.22 2.94211C1284.94 4.95383 1303.52 8.0715 1321.48 12.8479L1328.17 14.7419C1328.58 14.8581 1328.98 14.9729 1329.39 15.0876C1331.22 15.5993 1333.05 16.1096 1334.81 16.7536L1341.35 18.9773L1344.62 20.0832L1347.8 21.3654C1348.97 21.8567 1350.16 22.3322 1351.35 22.8078C1354.41 24.0295 1357.47 25.2517 1360.34 26.7419L1366.44 29.6828C1367.8 30.3337 1369.11 31.0583 1370.42 31.7824L1371.23 32.2282C1371.61 32.4406 1372 32.6516 1372.39 32.8596C1388.15 41.4358 1403.11 51.0002 1417.78 60.8357C1421.98 63.6516 1426.17 66.4851 1430.36 69.3191L1430.44 69.3718ZM450.097 138.493C491.354 145.154 533.347 148.738 575.389 149.191H0V114.529C74.9854 106.67 150.926 103.623 226.324 108.47C233.331 108.863 240.306 109.444 247.288 110.026C249.708 110.228 252.128 110.429 254.551 110.623C257.096 110.888 259.644 111.142 262.191 111.397C269.019 112.077 275.849 112.759 282.649 113.658C284.257 113.865 285.869 114.057 287.481 114.249L287.491 114.25L287.501 114.252C290.556 114.614 293.611 114.977 296.648 115.447L310.604 117.458L338.503 121.658L450.097 138.493Z" fill="#F3F3F3"/>
</svg>
