<svg width="113" height="24" viewBox="0 0 113 24" fill="none" xmlns="http://www.w3.org/2000/svg">
<path d="M4.41354 18.9502H0.960938V1.69922H4.41354V8.60442H11.3067V1.69922H14.7593V18.9502H11.3067V12.057H4.41354V18.9502Z" fill="white"/>
<path d="M34.4165 2.56543C34.4165 2.87019 34.3583 3.1549 34.242 3.41956C34.1257 3.68422 33.9673 3.91479 33.7668 4.11128C33.5663 4.30777 33.3318 4.46416 33.0631 4.58045C32.7944 4.69674 32.5077 4.75489 32.2029 4.75489C31.8982 4.75489 31.6115 4.69674 31.3428 4.58045C31.0741 4.46416 30.8416 4.30777 30.6451 4.11128C30.4486 3.91479 30.2922 3.68422 30.1759 3.41956C30.0596 3.1549 30.0015 2.87019 30.0015 2.56543C30.0015 2.26869 30.0596 1.98599 30.1759 1.71732C30.2922 1.44865 30.4486 1.21607 30.6451 1.01958C30.8416 0.82309 31.0741 0.666701 31.3428 0.550411C31.6115 0.434121 31.8982 0.375977 32.2029 0.375977C32.5077 0.375977 32.7944 0.434121 33.0631 0.550411C33.3318 0.666701 33.5663 0.82309 33.7668 1.01958C33.9673 1.21607 34.1257 1.44865 34.242 1.71732C34.3583 1.98599 34.4165 2.26869 34.4165 2.56543ZM33.8511 18.9502H30.5428V6.06615H33.8511V18.9502Z" fill="white"/>
<path d="M45.52 12.394C45.52 11.9449 45.4338 11.5098 45.2614 11.0887C45.0889 10.6677 44.8544 10.2948 44.5576 9.96995C44.2609 9.64514 43.914 9.38449 43.517 9.188C43.12 8.99151 42.697 8.89327 42.2479 8.89327C41.7988 8.89327 41.3757 8.96946 40.9787 9.12184C40.5817 9.27422 40.2369 9.49878 39.9441 9.79552C39.6514 10.0923 39.4208 10.4592 39.2524 10.8963C39.084 11.3333 38.9998 11.8326 38.9998 12.394C38.9998 12.9313 39.084 13.4145 39.2524 13.8436C39.4208 14.2727 39.6514 14.6396 39.9441 14.9443C40.2369 15.2491 40.5817 15.4837 40.9787 15.6481C41.3757 15.8125 41.7988 15.8947 42.2479 15.8947C42.697 15.8947 43.12 15.7965 43.517 15.6C43.914 15.4035 44.2609 15.1428 44.5576 14.818C44.8544 14.4932 45.0889 14.1203 45.2614 13.6992C45.4338 13.2782 45.52 12.8431 45.52 12.394ZM48.8283 17.3263C48.8283 18.2325 48.6558 19.0827 48.311 19.8766C47.9661 20.6706 47.4949 21.3643 46.8975 21.9578C46.3 22.5513 45.6022 23.0205 44.8042 23.3653C44.0063 23.7102 43.1541 23.8826 42.2479 23.8826L40.5998 23.8586V20.5744L42.2238 20.5984C42.7371 20.5984 43.1742 20.5323 43.5351 20.3999C43.896 20.2676 44.2007 20.0872 44.4494 19.8586C44.698 19.63 44.8965 19.3674 45.0448 19.0706C45.1932 18.7739 45.3115 18.4611 45.3997 18.1323C45.2714 18.3408 45.0869 18.5112 44.8463 18.6436C44.6057 18.7759 44.3391 18.8842 44.0464 18.9684C43.7536 19.0526 43.4489 19.1107 43.1321 19.1428C42.8153 19.1749 42.5206 19.1909 42.2479 19.1909C41.3416 19.1909 40.4895 19.0345 39.6915 18.7218C38.8935 18.409 38.1958 17.9619 37.5983 17.3804C37.0008 16.799 36.5296 16.0872 36.1848 15.2451C35.8399 14.403 35.6675 13.4526 35.6675 12.394C35.6675 11.4236 35.8399 10.5213 36.1848 9.68725C36.5296 8.85317 37.0008 8.13137 37.5983 7.52185C38.1958 6.91233 38.8935 6.43515 39.6915 6.09029C40.4895 5.74543 41.3416 5.573 42.2479 5.573C42.6649 5.573 43.0779 5.62513 43.487 5.72939C43.896 5.83365 44.293 5.97801 44.6779 6.16247C45.0629 6.34693 45.4298 6.56347 45.7787 6.81209C46.1275 7.0607 46.4544 7.32937 46.7591 7.61809C47.1718 7.52358 47.5497 7.34964 47.8929 7.09627C48.236 6.84291 48.5478 6.50758 48.8283 6.09029V17.3263Z" fill="white"/>
<path d="M54.6147 18.9503H51.3306V0.941406H54.6147V6.63158C55.0077 6.33484 55.4127 6.12432 55.8298 6.00001C56.2468 5.8757 56.6719 5.81354 57.105 5.81354C57.8989 5.81354 58.6448 5.96392 59.3425 6.26467C60.0403 6.56542 60.6478 6.97845 61.1651 7.50375C61.6824 8.02906 62.0914 8.64259 62.3921 9.34434C62.6929 10.0461 62.8432 10.794 62.8432 11.5879V18.9503H59.535V11.5879H59.5591C59.5591 11.2511 59.4949 10.9323 59.3666 10.6315C59.2383 10.3308 59.0618 10.0681 58.8373 9.84358C58.6127 9.61902 58.3521 9.44258 58.0553 9.31427C57.7586 9.18595 57.4418 9.12179 57.105 9.12179C56.7601 9.12179 56.4353 9.18595 56.1305 9.31427C55.8258 9.44258 55.5611 9.61902 55.3365 9.84358C55.112 10.0681 54.9355 10.3308 54.8072 10.6315C54.6789 10.9323 54.6147 11.2511 54.6147 11.5879V18.9503Z" fill="white"/>
<path d="M68.485 18.9503H65.1768V0.941406H68.485V18.9503Z" fill="white"/>
<path d="M74.8608 2.56543C74.8608 2.87019 74.8027 3.1549 74.6864 3.41956C74.5701 3.68422 74.4117 3.91479 74.2112 4.11128C74.0107 4.30777 73.7761 4.46416 73.5074 4.58045C73.2388 4.69674 72.952 4.75489 72.6473 4.75489C72.3425 4.75489 72.0558 4.69674 71.7871 4.58045C71.5185 4.46416 71.2859 4.30777 71.0894 4.11128C70.8929 3.91479 70.7365 3.68422 70.6202 3.41956C70.5039 3.1549 70.4458 2.87019 70.4458 2.56543C70.4458 2.26869 70.5039 1.98599 70.6202 1.71732C70.7365 1.44865 70.8929 1.21607 71.0894 1.01958C71.2859 0.82309 71.5185 0.666701 71.7871 0.550411C72.0558 0.434121 72.3425 0.375977 72.6473 0.375977C72.952 0.375977 73.2388 0.434121 73.5074 0.550411C73.7761 0.666701 74.0107 0.82309 74.2112 1.01958C74.4117 1.21607 74.5701 1.44865 74.6864 1.71732C74.8027 1.98599 74.8608 2.26869 74.8608 2.56543ZM74.2954 18.9502H70.9871V6.06615H74.2954V18.9502Z" fill="white"/>
<path d="M80.082 18.9502H76.7979V6.06611C77.0888 6.42066 77.3786 6.6942 77.6674 6.88673C77.9562 7.07926 78.2919 7.22276 78.6745 7.31722C79.2038 6.83602 79.8033 6.4651 80.473 6.20445C81.1427 5.9438 81.8424 5.81348 82.5722 5.81348C83.3582 5.81348 84.1 5.96385 84.7978 6.2646C85.4955 6.56535 86.105 6.97838 86.6263 7.50369C87.1476 8.029 87.5587 8.64252 87.8594 9.34427C88.1602 10.046 88.3105 10.7939 88.3105 11.5879V18.9502H85.0263V11.5879C85.0263 11.251 84.9622 10.9322 84.8339 10.6315C84.7055 10.3307 84.5291 10.0681 84.3045 9.84352C84.08 9.61896 83.8193 9.44252 83.5226 9.3142C83.2259 9.18588 82.9091 9.12172 82.5722 9.12172C82.2274 9.12172 81.9026 9.18588 81.5978 9.3142C81.293 9.44252 81.0284 9.61896 80.8038 9.84352C80.5793 10.0681 80.4028 10.3307 80.2745 10.6315C80.1462 10.9322 80.082 11.251 80.082 11.5879V18.9502Z" fill="white"/>
<path d="M106.861 18.9503H103.577V6.06616C103.861 6.48249 104.153 6.81241 104.452 7.05591C104.751 7.29942 105.085 7.47877 105.453 7.59397C105.983 7.11277 106.584 6.74185 107.258 6.4812C107.932 6.22055 108.629 6.09022 109.351 6.09022H112.25V9.36237H109.351C109.006 9.36237 108.681 9.42653 108.377 9.55485C108.072 9.68317 107.807 9.85961 107.583 10.0842C107.358 10.3087 107.182 10.5734 107.053 10.8781C106.925 11.1829 106.861 11.5077 106.861 11.8526V18.9503Z" fill="white"/>
<path fill-rule="evenodd" clip-rule="evenodd" d="M20.7298 6.34215C24.0682 5.38487 27.5951 7.4707 28.6074 11.001C28.6884 11.2835 28.7509 11.5668 28.7955 11.8493L24.2608 13.1496L24.2611 13.1496L19.6456 14.4731C20.4572 15.8848 22.0802 16.6322 23.6283 16.1883C24.8386 15.8413 25.7019 14.8524 25.9924 13.6597C27.2855 15.4403 27.7417 16.6123 27.3611 17.1756C27.3457 17.1983 27.3298 17.2218 27.3134 17.2459C26.5619 18.123 25.5684 18.7901 24.3956 19.1264C21.0572 20.0836 17.5303 17.9978 16.518 14.4676C15.5057 10.9373 17.3914 7.29942 20.7298 6.34215ZM21.5962 9.1014C20.1934 9.50364 19.2568 10.768 19.1378 12.2126L25.3296 10.4371C24.4633 9.27511 22.9989 8.69917 21.5962 9.1014Z" fill="white"/>
<path fill-rule="evenodd" clip-rule="evenodd" d="M94.1658 6.34215C97.5042 5.38487 101.031 7.4707 102.043 11.001C102.124 11.2835 102.187 11.5668 102.232 11.8493L97.6969 13.1496L97.6971 13.1495L93.0816 14.4731C93.8932 15.8848 95.5163 16.6322 97.0643 16.1883C98.2747 15.8413 99.138 14.8524 99.4285 13.6597C100.722 15.4403 101.178 16.6123 100.797 17.1756C100.782 17.1983 100.766 17.2218 100.749 17.2459C99.9979 18.123 99.0044 18.7901 97.8316 19.1264C94.4932 20.0836 90.9663 17.9978 89.954 14.4676C88.9417 10.9373 90.8274 7.29942 94.1658 6.34215ZM95.0322 9.1014C93.6294 9.50364 92.6928 10.768 92.5738 12.2126L98.7657 10.4371C97.8993 9.27511 96.435 8.69917 95.0322 9.1014Z" fill="white"/>
</svg>
