<svg width="113" height="24" viewBox="0 0 82 19" fill="none" xmlns="http://www.w3.org/2000/svg">
    <path d="M2.884 15.037H.351V1.992h2.533v5.221h5.057v-5.22h2.533v13.043H7.941V9.825H2.884v5.213zM24.896 2.647a1.663 1.663 0 0 1-.993 1.524 1.531 1.531 0 0 1-.63.132c-.224 0-.435-.044-.632-.132a1.632 1.632 0 0 1-.856-.878 1.63 1.63 0 0 1-.128-.646 1.687 1.687 0 0 1 .472-1.169c.145-.148.315-.267.512-.354.197-.088.408-.132.631-.132.224 0 .434.044.631.132a1.65 1.65 0 0 1 .865.882c.086.203.128.417.128.641zm-.415 12.39h-2.427V5.294h2.428v9.743zM33.042 10.079c0-.34-.063-.669-.19-.987a2.852 2.852 0 0 0-.516-.846 2.576 2.576 0 0 0-.764-.591 2.02 2.02 0 0 0-.93-.223c-.33 0-.64.058-.932.173a2.116 2.116 0 0 0-.759.51 2.402 2.402 0 0 0-.507.832 3.22 3.22 0 0 0-.186 1.132c0 .406.062.772.186 1.096.123.325.292.602.507.832.215.23.468.408.76.533.29.124.6.186.93.186.33 0 .64-.074.931-.223.292-.148.546-.345.764-.591.218-.246.39-.528.516-.846a2.65 2.65 0 0 0 .19-.987zm2.427 3.73c0 .685-.127 1.328-.38 1.928a4.929 4.929 0 0 1-2.573 2.638c-.585.26-1.21.391-1.875.391l-1.209-.018v-2.483l1.192.018c.376 0 .697-.05.962-.15a1.977 1.977 0 0 0 1.107-1.005c.11-.225.196-.461.26-.71a1.08 1.08 0 0 1-.405.387c-.177.1-.373.182-.587.245a3.7 3.7 0 0 1-.671.132 6.265 6.265 0 0 1-.649.037 4.96 4.96 0 0 1-1.875-.355 4.553 4.553 0 0 1-1.536-1.014 4.723 4.723 0 0 1-1.037-1.615c-.253-.637-.38-1.355-.38-2.156 0-.734.127-1.416.38-2.047a5.106 5.106 0 0 1 1.037-1.637c.438-.46.95-.822 1.536-1.083a4.558 4.558 0 0 1 1.875-.39c.306 0 .61.039.91.118.3.078.59.188.873.327.282.14.552.303.808.491s.495.391.719.61c.303-.072.58-.203.832-.395.252-.191.48-.445.686-.76v8.496zM39.715 15.036h-2.41V1.42h2.41v4.303c.288-.225.585-.384.891-.478.306-.094.618-.141.936-.141.582 0 1.13.114 1.641.341.512.228.958.54 1.337.937.38.397.68.861.9 1.392.221.53.332 1.096.332 1.696v5.567h-2.428V9.47h.018a1.878 1.878 0 0 0-.53-1.319 1.829 1.829 0 0 0-.573-.4 1.694 1.694 0 0 0-.697-.145 1.802 1.802 0 0 0-1.297.546 1.878 1.878 0 0 0-.53 1.318v5.567zM49.891 15.036h-2.427V1.42h2.427v13.617zM54.57 2.647a1.66 1.66 0 0 1-.993 1.524 1.531 1.531 0 0 1-.632.132c-.223 0-.434-.044-.63-.132a1.63 1.63 0 0 1-.857-.878 1.628 1.628 0 0 1-.128-.646 1.686 1.686 0 0 1 .472-1.169 1.63 1.63 0 0 1 .512-.354 1.53 1.53 0 0 1 .631-.132c.224 0 .434.044.631.132a1.648 1.648 0 0 1 .865.882c.085.203.128.417.128.641zm-.416 12.39h-2.427V5.294h2.427v9.743zM58.4 15.037h-2.41V5.293c.213.268.426.475.638.62.212.146.458.255.739.326a4.202 4.202 0 0 1 1.32-.841 4.098 4.098 0 0 1 1.54-.296c.576 0 1.12.114 1.632.341.512.228.96.54 1.341.937a4.447 4.447 0 0 1 1.236 3.088v5.568h-2.41V9.469a1.878 1.878 0 0 0-.53-1.319 1.83 1.83 0 0 0-.573-.4 1.693 1.693 0 0 0-.697-.145 1.801 1.801 0 0 0-1.297.546 1.878 1.878 0 0 0-.53 1.318v5.568zM78.046 15.037h-2.41V5.294c.209.315.423.565.642.749.22.184.465.32.735.406a4.188 4.188 0 0 1 2.86-1.137H82v2.475h-2.127a1.801 1.801 0 0 0-1.686 1.146 1.93 1.93 0 0 0-.141.737v5.367z" fill="#6002EE"/>
    <path fill-rule="evenodd" clip-rule="evenodd" d="M14.855 5.503c2.449-.724 5.037.853 5.78 3.523.059.213.104.427.137.641l-3.327.983-3.386 1.001c.596 1.068 1.787 1.633 2.922 1.297.888-.263 1.522-1.01 1.735-1.912.948 1.346 1.283 2.233 1.004 2.659a9.174 9.174 0 0 1-.035.053 4.398 4.398 0 0 1-2.14 1.422c-2.45.723-5.038-.854-5.78-3.523-.743-2.67.64-5.42 3.09-6.144zm.635 2.086c-1.029.304-1.716 1.26-1.803 2.353l4.542-1.343c-.635-.878-1.71-1.314-2.739-1.01zM68.732 5.503c2.449-.724 5.037.853 5.78 3.523.059.213.104.427.137.641l-3.327.983-3.386 1.001c.596 1.068 1.786 1.633 2.922 1.297.888-.263 1.521-1.01 1.735-1.912.948 1.346 1.283 2.233 1.004 2.659l-.035.053a4.399 4.399 0 0 1-2.14 1.422c-2.45.723-5.038-.854-5.78-3.523-.743-2.67.64-5.42 3.09-6.144zm.635 2.086c-1.029.304-1.716 1.26-1.803 2.353l4.542-1.343c-.635-.878-1.71-1.314-2.739-1.01z" fill="#6002EE"/>
</svg>
